<svg width="26" height="28" viewBox="0 0 26 28" fill="none" xmlns="http://www.w3.org/2000/svg">
<g clip-path="url(#clip0_3808_25692)">
<path d="M22.5625 1.75H3.3125C2.61631 1.75 1.94863 2.02656 1.45634 2.51884C0.964062 3.01113 0.6875 3.67881 0.6875 4.375L0.6875 23.625C0.6875 24.3212 0.964062 24.9889 1.45634 25.4812C1.94863 25.9734 2.61631 26.25 3.3125 26.25H10.8184V17.9205H7.37305V14H10.8184V11.0119C10.8184 7.61305 12.8418 5.73562 15.9409 5.73562C17.4252 5.73562 18.9772 6.00031 18.9772 6.00031V9.33625H17.2671C15.5822 9.33625 15.0566 10.3819 15.0566 11.4543V14H18.818L18.2165 17.9205H15.0566V26.25H22.5625C23.2587 26.25 23.9264 25.9734 24.4187 25.4812C24.9109 24.9889 25.1875 24.3212 25.1875 23.625V4.375C25.1875 3.67881 24.9109 3.01113 24.4187 2.51884C23.9264 2.02656 23.2587 1.75 22.5625 1.75Z" fill="white"/>
</g>
<defs>
<clipPath id="clip0_3808_25692">
<rect width="24.5" height="28" fill="white" transform="translate(0.6875)"/>
</clipPath>
</defs>
</svg>
