<svg width="25" height="28" viewBox="0 0 25 28" fill="none" xmlns="http://www.w3.org/2000/svg">
<g clip-path="url(#clip0_3808_25696)">
<path d="M12.5625 11.083C11.9856 11.0832 11.4217 11.2544 10.9422 11.5751C10.4626 11.8958 10.0889 12.3514 9.86829 12.8845C9.64768 13.4175 9.59007 14.004 9.70275 14.5698C9.81542 15.1355 10.0933 15.6552 10.5013 16.063C10.9093 16.4709 11.4291 16.7486 11.9949 16.8611C12.5607 16.9735 13.1472 16.9157 13.6801 16.6949C14.2131 16.4741 14.6686 16.1002 14.9891 15.6205C15.3096 15.1408 15.4806 14.5769 15.4806 14C15.48 13.2263 15.1724 12.4846 14.6252 11.9376C14.0781 11.3906 13.3362 11.0833 12.5625 11.083ZM19.3826 8.84078C19.2341 8.46445 19.0098 8.12264 18.7238 7.83656C18.4377 7.55048 18.0959 7.32623 17.7195 7.17773C16.5711 6.72437 13.8367 6.82609 12.5625 6.82609C11.2883 6.82609 8.55664 6.72055 7.40492 7.17773C7.02859 7.32623 6.68678 7.55048 6.4007 7.83656C6.11462 8.12264 5.89038 8.46445 5.74187 8.84078C5.28906 9.98922 5.39023 12.7263 5.39023 13.9995C5.39023 15.2726 5.28906 18.0064 5.74406 19.1587C5.89256 19.535 6.11681 19.8768 6.40289 20.1629C6.68896 20.449 7.03077 20.6732 7.40711 20.8217C8.55555 21.2751 11.2899 21.1734 12.5647 21.1734C13.8395 21.1734 16.57 21.2789 17.7217 20.8217C18.0981 20.6732 18.4399 20.449 18.7259 20.1629C19.012 19.8768 19.2363 19.535 19.3848 19.1587C19.8414 18.0102 19.7364 15.2731 19.7364 14C19.7364 12.7269 19.8414 9.99359 19.3848 8.84133L19.3826 8.84078ZM12.5625 18.4844C11.6756 18.4844 10.8086 18.2214 10.0711 17.7286C9.33366 17.2359 8.75889 16.5355 8.41948 15.7161C8.08007 14.8967 7.99126 13.995 8.16429 13.1251C8.33732 12.2553 8.76442 11.4562 9.39157 10.8291C10.0187 10.2019 10.8178 9.77482 11.6876 9.60179C12.5575 9.42876 13.4592 9.51757 14.2786 9.85698C15.098 10.1964 15.7984 10.7712 16.2911 11.5086C16.7839 12.2461 17.0469 13.1131 17.0469 14C17.0476 14.5891 16.9321 15.1726 16.707 15.7169C16.4819 16.2613 16.1516 16.756 15.735 17.1725C15.3185 17.5891 14.8238 17.9194 14.2794 18.1445C13.7351 18.3696 13.1516 18.4851 12.5625 18.4844ZM17.2317 10.3742C17.0247 10.3743 16.8222 10.313 16.65 10.1981C16.4778 10.0831 16.3436 9.91969 16.2643 9.72844C16.185 9.53719 16.1642 9.32671 16.2045 9.12363C16.2448 8.92055 16.3445 8.73399 16.4908 8.58755C16.6372 8.44111 16.8237 8.34137 17.0268 8.30093C17.2298 8.2605 17.4403 8.2812 17.6316 8.36041C17.8229 8.43961 17.9864 8.57377 18.1014 8.74592C18.2165 8.91806 18.2779 9.12046 18.2779 9.3275C18.2785 9.46499 18.2519 9.60124 18.1997 9.72844C18.1475 9.85564 18.0707 9.97128 17.9737 10.0687C17.8767 10.1662 17.7614 10.2435 17.6345 10.2963C17.5075 10.3491 17.3714 10.3763 17.2339 10.3764L17.2317 10.3742ZM22.1875 1.75H2.9375C2.24131 1.75 1.57363 2.02656 1.08134 2.51884C0.589062 3.01113 0.3125 3.67881 0.3125 4.375L0.3125 23.625C0.3125 24.3212 0.589062 24.9889 1.08134 25.4812C1.57363 25.9734 2.24131 26.25 2.9375 26.25H22.1875C22.8837 26.25 23.5514 25.9734 24.0437 25.4812C24.5359 24.9889 24.8125 24.3212 24.8125 23.625V4.375C24.8125 3.67881 24.5359 3.01113 24.0437 2.51884C23.5514 2.02656 22.8837 1.75 22.1875 1.75ZM21.2513 17.6094C21.1807 19.011 20.8608 20.253 19.8376 21.2734C18.8144 22.2939 17.5735 22.6204 16.1735 22.6871C14.7292 22.7686 10.3991 22.7686 8.95477 22.6871C7.55312 22.6166 6.31555 22.2961 5.2907 21.2734C4.26586 20.2508 3.94375 19.0083 3.87703 17.6094C3.79555 16.1645 3.79555 11.8338 3.87703 10.3906C3.94758 8.98898 4.26367 7.74703 5.2907 6.72656C6.31773 5.70609 7.55859 5.38344 8.95477 5.31672C10.3991 5.23523 14.7292 5.23523 16.1735 5.31672C17.5752 5.38727 18.8166 5.70773 19.8376 6.73039C20.8586 7.75305 21.1845 8.99555 21.2513 10.3972C21.3327 11.8366 21.3327 16.1634 21.2513 17.6094Z" fill="white"/>
</g>
<defs>
<clipPath id="clip0_3808_25696">
<rect width="24.5" height="28" fill="white" transform="translate(0.3125)"/>
</clipPath>
</defs>
</svg>
