<svg width="189" height="56" viewBox="0 0 189 56" fill="none" xmlns="http://www.w3.org/2000/svg">
<path fill-rule="evenodd" clip-rule="evenodd" d="M11.452 0H44.5429C50.8438 0 56 5.15617 56 11.452V44.5429C56 50.8438 50.8438 55.9949 44.5429 55.9949H11.452C5.15116 55.9949 0 50.8388 0 44.5429V11.452C0 5.15116 5.15617 0 11.452 0Z" fill="#3D68FF"/>
<path fill-rule="evenodd" clip-rule="evenodd" d="M34.468 33.3376C35.4973 35.7124 42.4006 44.0968 44.1227 45.7084C33.0974 43.4893 23.3875 37.595 18.9593 26.4292C22.9808 26.4192 32.0581 27.9957 32.505 22.724C33.0171 16.624 24.7883 18.5268 21.1484 18.1502C18.1159 17.7285 14.4006 13.6015 11.0117 9.69043C19.8078 10.6394 32.1485 7.9935 39.4535 14.1488C45.0213 18.8431 42.2048 30.777 34.473 33.3325L34.468 33.3376Z" fill="white"/>
<path d="M80.2422 18.4258H85.2617C88.1914 18.4258 90.0273 20.1836 90.0273 22.918C90.0273 25.7109 88.2891 27.4102 85.3203 27.4102H80.2422V18.4258ZM80.2422 31.6875H84.9688L90.2227 42H96.9023L90.9648 30.8086C94.207 29.5391 96.082 26.4141 96.082 22.8008C96.082 17.2344 92.3711 13.8164 85.8867 13.8164H74.3438V42H80.2422V31.6875ZM107.88 24.832C110.419 24.832 112.157 26.668 112.274 29.3438H103.388C103.583 26.7266 105.38 24.832 107.88 24.832ZM112.352 35.5938C111.825 37.1953 110.223 38.2305 108.134 38.2305C105.223 38.2305 103.329 36.1797 103.329 33.1914V32.8398H117.763V31.1016C117.763 24.7344 113.915 20.6133 107.821 20.6133C101.63 20.6133 97.7234 24.9492 97.7234 31.6289C97.7234 38.3281 101.591 42.4492 108.036 42.4492C113.212 42.4492 116.962 39.6953 117.587 35.5938H112.352ZM127.685 42.332C130.771 42.332 133.193 40.7109 134.209 38.4062H134.306V42H139.931V13.8164H134.228V24.6562H134.111C133.095 22.332 130.752 20.7305 127.724 20.7305C122.47 20.7305 119.15 24.8516 119.15 31.4922C119.15 38.1914 122.451 42.332 127.685 42.332ZM129.619 25.3008C132.451 25.3008 134.267 27.7227 134.267 31.5312C134.267 35.3594 132.451 37.7422 129.619 37.7422C126.748 37.7422 124.99 35.3789 124.99 31.5312C124.99 27.7031 126.748 25.3008 129.619 25.3008ZM149.327 13.8164H143.428V32.0391C143.428 38.25 148.018 42.4883 155.245 42.4883C162.452 42.4883 167.041 38.25 167.041 32.0391V13.8164H161.143V31.4531C161.143 35.0664 159.014 37.4297 155.245 37.4297C151.455 37.4297 149.327 35.0664 149.327 31.4531V13.8164ZM170.07 42H187.355V37.625H177.316V37.5273L187.12 24.6758V21.0625H170.226V25.418H180.499V25.5352L170.07 38.7578V42Z" fill="#3D68FF"/>
</svg>
