<svg width="28" height="28" viewBox="0 0 28 28" fill="none" xmlns="http://www.w3.org/2000/svg">
<g clip-path="url(#clip0_3808_25694)">
<path d="M13.75 0.4375C6.25781 0.4375 0.1875 6.50781 0.1875 14C0.1875 21.4922 6.25781 27.5625 13.75 27.5625C21.2422 27.5625 27.3125 21.4922 27.3125 14C27.3125 6.50781 21.2422 0.4375 13.75 0.4375ZM20.4109 9.72891L18.1852 20.218C18.0211 20.9617 17.5781 21.1422 16.9602 20.7922L13.5695 18.293L11.9344 19.868C11.7539 20.0484 11.6008 20.2016 11.2508 20.2016L11.4914 16.7508L17.775 11.0742C18.0484 10.8336 17.7148 10.6969 17.3539 10.9375L9.58828 15.8266L6.24141 14.782C5.51406 14.5523 5.49766 14.0547 6.39453 13.7047L19.4703 8.6625C20.0773 8.44375 20.6078 8.81016 20.4109 9.72891Z" fill="white"/>
</g>
<defs>
<clipPath id="clip0_3808_25694">
<rect width="27.125" height="28" fill="white" transform="translate(0.1875)"/>
</clipPath>
</defs>
</svg>
