<svg width="26" height="28" viewBox="0 0 26 28" fill="none" xmlns="http://www.w3.org/2000/svg">
<g clip-path="url(#clip0_3808_25698)">
<path d="M22.6875 1.75H3.4375C1.98828 1.75 0.8125 2.92578 0.8125 4.375V23.625C0.8125 25.0742 1.98828 26.25 3.4375 26.25H22.6875C24.1367 26.25 25.3125 25.0742 25.3125 23.625V4.375C25.3125 2.92578 24.1367 1.75 22.6875 1.75ZM20.0133 10.4344C20.0242 10.5875 20.0242 10.7461 20.0242 10.8992C20.0242 15.6406 16.4148 21.1039 9.81953 21.1039C7.78516 21.1039 5.89844 20.5133 4.3125 19.4961C4.60234 19.5289 4.88125 19.5398 5.17656 19.5398C6.85547 19.5398 8.39766 18.9711 9.62812 18.0086C8.05312 17.9758 6.72969 16.9422 6.27578 15.5203C6.82812 15.6023 7.32578 15.6023 7.89453 15.4547C6.25391 15.1211 5.02344 13.6773 5.02344 11.9328V11.8891C5.49922 12.157 6.05703 12.3211 6.64219 12.343C6.15023 12.0157 5.74694 11.5718 5.4683 11.0508C5.18966 10.5298 5.04435 9.94788 5.04531 9.35703C5.04531 8.68984 5.22031 8.07734 5.53203 7.54688C7.29844 9.72344 9.95078 11.1453 12.9258 11.2984C12.4172 8.86484 14.2383 6.89062 16.4258 6.89062C17.4594 6.89062 18.3891 7.32266 19.0453 8.02266C19.8547 7.86953 20.6312 7.56875 21.3203 7.15859C21.0523 7.98984 20.4891 8.68984 19.7453 9.13281C20.4672 9.05625 21.1672 8.85391 21.8125 8.575C21.3258 9.29141 20.7133 9.92578 20.0133 10.4344Z" fill="white"/>
</g>
<defs>
<clipPath id="clip0_3808_25698">
<rect width="24.5" height="28" fill="white" transform="translate(0.8125)"/>
</clipPath>
</defs>
</svg>
